<?xml version="1.0" encoding="UTF-8" standalone="no"?>
<svg
   sodipodi:docname="pinhole-camera-point.svg"
   inkscape:version="1.2-dev (9ee32be, 2021-06-19)"
   id="svg8"
   version="1.1"
   viewBox="0 0 253 145"
   height="548.03149"
   width="956.22046"
   xmlns:inkscape="http://www.inkscape.org/namespaces/inkscape"
   xmlns:sodipodi="http://sodipodi.sourceforge.net/DTD/sodipodi-0.dtd"
   xmlns="http://www.w3.org/2000/svg"
   xmlns:svg="http://www.w3.org/2000/svg"
   xmlns:rdf="http://www.w3.org/1999/02/22-rdf-syntax-ns#"
   xmlns:cc="http://creativecommons.org/ns#"
   xmlns:dc="http://purl.org/dc/elements/1.1/">
  <defs
     id="defs2">
    <marker
       inkscape:isstock="true"
       style="overflow:visible"
       id="StopL"
       refX="0"
       refY="0"
       orient="auto"
       inkscape:stockid="StopL">
      <path
         transform="scale(0.8)"
         style="fill:none;fill-opacity:0.75;fill-rule:evenodd;stroke:#000000;stroke-width:1pt;stroke-opacity:1"
         d="M 0,5.65 V -5.65"
         id="path1161" />
    </marker>
    <marker
       inkscape:isstock="true"
       style="overflow:visible"
       id="marker1437"
       refX="0"
       refY="0"
       orient="auto"
       inkscape:stockid="Arrow1Lend">
      <path
         transform="matrix(-0.8,0,0,-0.8,-10,0)"
         style="fill:#000000;fill-opacity:1;fill-rule:evenodd;stroke:#000000;stroke-width:1pt;stroke-opacity:1"
         d="M 0,0 5,-5 -12.5,0 5,5 Z"
         id="path1435" />
    </marker>
    <marker
       inkscape:collect="always"
       inkscape:stockid="Arrow1Lend"
       orient="auto"
       refY="0"
       refX="0"
       id="marker1369"
       style="overflow:visible"
       inkscape:isstock="true">
      <path
         id="path1367"
         d="M 0,0 5,-5 -12.5,0 5,5 Z"
         style="fill:#000000;fill-opacity:1;fill-rule:evenodd;stroke:#000000;stroke-width:1pt;stroke-opacity:1"
         transform="matrix(-0.8,0,0,-0.8,-10,0)" />
    </marker>
    <marker
       inkscape:collect="always"
       inkscape:isstock="true"
       style="overflow:visible"
       id="Arrow1Lend"
       refX="0"
       refY="0"
       orient="auto"
       inkscape:stockid="Arrow1Lend">
      <path
         transform="matrix(-0.8,0,0,-0.8,-10,0)"
         style="fill:#000000;fill-opacity:1;fill-rule:evenodd;stroke:#000000;stroke-width:1pt;stroke-opacity:1"
         d="M 0,0 5,-5 -12.5,0 5,5 Z"
         id="path995" />
    </marker>
    <inkscape:perspective
       id="perspective833"
       inkscape:persp3d-origin="168.04346 : 16.57875 : 1"
       inkscape:vp_z="318.43393 : 61.295413 : 1"
       inkscape:vp_y="17.320476 : 772.69078 : 0"
       inkscape:vp_x="33.859324 : 64.485334 : 1"
       sodipodi:type="inkscape:persp3d" />
    <marker
       inkscape:stockid="Arrow1Lend"
       orient="auto"
       refY="0"
       refX="0"
       id="Arrow1Lend-9"
       style="overflow:visible"
       inkscape:isstock="true">
      <path
         id="path995-5"
         d="M 0,0 5,-5 -12.5,0 5,5 Z"
         style="fill:#000000;fill-opacity:1;fill-rule:evenodd;stroke:#000000;stroke-width:1pt;stroke-opacity:1"
         transform="matrix(-0.8,0,0,-0.8,-10,0)" />
    </marker>
    <clipPath
       clipPathUnits="userSpaceOnUse"
       id="clipPath1498">
      <rect
         style="fill:#fbe90b;stroke:#fbe90b;stroke-width:0.637"
         id="rect1500"
         width="96.471664"
         height="51.434494"
         x="145.87639"
         y="33.26609" />
    </clipPath>
    <clipPath
       clipPathUnits="userSpaceOnUse"
       id="clipPath1606">
      <rect
         style="fill:#fbe90b;stroke:#fbe90b;stroke-width:0.634233"
         id="rect1608"
         width="78.285576"
         height="102.60374"
         x="49.079262"
         y="17.049654" />
    </clipPath>
  </defs>
  <sodipodi:namedview
     inkscape:window-maximized="0"
     inkscape:window-y="25"
     inkscape:window-x="54"
     inkscape:window-height="755"
     inkscape:window-width="1227"
     height="209mm"
     inkscape:pagecheckerboard="false"
     showgrid="false"
     inkscape:document-rotation="0"
     inkscape:current-layer="layer1"
     inkscape:document-units="px"
     inkscape:cy="378.77112"
     inkscape:cx="402.59837"
     inkscape:zoom="0.60854693"
     inkscape:pageshadow="2"
     inkscape:pageopacity="0.0"
     borderopacity="1.0"
     bordercolor="#666666"
     pagecolor="#ffffff"
     id="base"
     units="px" />
  <metadata
     id="metadata5">
    <rdf:RDF>
      <cc:Work
         rdf:about="">
        <dc:format>image/svg+xml</dc:format>
        <dc:type
           rdf:resource="http://purl.org/dc/dcmitype/StillImage" />
      </cc:Work>
    </rdf:RDF>
  </metadata>
  <g
     id="layer1"
     inkscape:groupmode="layer"
     inkscape:label="Capa 1">
    <path
       id="path1505"
       d="m 147.21814,73.358816 c -111.467095,0 -111.467095,-0.333271 -111.467095,-0.333271"
       style="fill:none;stroke:#000000;stroke-width:0.37915;stroke-linecap:butt;stroke-linejoin:miter;stroke-miterlimit:4;stroke-dasharray:3.03321, 0.37915;stroke-dashoffset:0;stroke-opacity:1" />
    <rect
       style="fill:none;fill-opacity:0.239216;stroke:#000000;stroke-width:0.42715;stroke-miterlimit:4;stroke-dasharray:none;stroke-opacity:1"
       id="rect877-4"
       width="85.797913"
       height="77.188782"
       x="42.330395"
       y="46.390083" />
    <path
       id="path945"
       d="M 42.33039,46.390083 C 72.715533,26.257962 72.715533,26.257962 72.715533,26.257962"
       style="fill:none;stroke:#000000;stroke-width:0.42715;stroke-linecap:butt;stroke-linejoin:miter;stroke-miterlimit:4;stroke-dasharray:none;stroke-opacity:1" />
    <path
       id="path947"
       d="M 128.12829,46.390083 C 158.51344,26.257962 158.51344,26.257962 158.51344,26.257962"
       style="fill:none;stroke:#000000;stroke-width:0.42715;stroke-linecap:butt;stroke-linejoin:miter;stroke-miterlimit:4;stroke-dasharray:none;stroke-opacity:1" />
    <path
       id="path949"
       d="m 128.12829,123.57888 c 30.38515,-20.13213 30.38515,-20.13213 30.38515,-20.13213"
       style="fill:none;stroke:#000000;stroke-width:0.42715;stroke-linecap:butt;stroke-linejoin:miter;stroke-miterlimit:4;stroke-dasharray:none;stroke-opacity:1" />
    <path
       id="path951"
       d="M 72.715533,103.44675 C 42.33039,123.57888 42.33039,123.57888 42.33039,123.57888"
       style="fill:none;stroke:#000000;stroke-width:0.42715;stroke-linecap:butt;stroke-linejoin:miter;stroke-miterlimit:4;stroke-dasharray:none;stroke-opacity:1" />
    <path
       id="path982"
       d="m 72.715532,103.60979 c 55.063848,0 55.063848,0 55.063848,0"
       style="fill:none;stroke:#000000;stroke-width:0.422468;stroke-linecap:butt;stroke-linejoin:miter;stroke-miterlimit:4;stroke-dasharray:none;stroke-opacity:1" />
    <path
       id="path984"
       d="m 72.715533,103.44675 c 0,0 0,0 0,-77.188788 85.797907,0 85.797907,0 85.797907,0 0,77.188788 0,77.188788 0,77.188788"
       style="fill:none;stroke:#000000;stroke-width:0.42715;stroke-linecap:butt;stroke-linejoin:miter;stroke-miterlimit:4;stroke-dasharray:none;stroke-opacity:1" />
    <path
       id="path990"
       d="m 146.38402,73.359636 c 78.83452,0 78.83452,0 78.83452,0"
       style="fill:none;stroke:#000000;stroke-width:0.541;stroke-linecap:butt;stroke-linejoin:miter;stroke-miterlimit:4;stroke-dasharray:none;stroke-opacity:1;marker-end:url(#Arrow1Lend)" />
    <path
       id="path1581"
       d="m 41.315428,135.57125 c 85.944292,0 85.944292,0 85.944292,0"
       style="fill:none;stroke:#000000;stroke-width:0.378347;stroke-linecap:butt;stroke-linejoin:miter;stroke-miterlimit:4;stroke-dasharray:none;stroke-opacity:1;marker-start:url(#StopL);marker-end:url(#StopL)" />
    <text
       id="text1651"
       y="132.79951"
       x="79.513824"
       style="font-size:9.87778px;line-height:1.25;font-family:Times;-inkscape-font-specification:'Times, Normal';stroke-width:0.274259"
       xml:space="preserve"><tspan
         style="font-size:9.87778px;stroke-width:0.274259"
         y="132.79951"
         x="79.513824"
         id="tspan1649"
         sodipodi:role="line">d</tspan></text>
    <text
       id="text1667"
       y="104.61807"
       x="5.5467954"
       style="font-size:9.87778px;line-height:1.25;font-family:Times;-inkscape-font-specification:'Times, Normal';stroke-width:0.274259"
       xml:space="preserve"><tspan
         style="font-size:9.87778px;stroke-width:0.274259"
         y="104.61807"
         x="5.5467954"
         id="tspan1665"
         sodipodi:role="line">(x', y', z')</tspan></text>
    <text
       id="text1671"
       y="48.214512"
       x="209.46016"
       style="font-size:9.87778px;line-height:1.25;font-family:Times;-inkscape-font-specification:'Times, Normal';stroke-width:0.274259"
       xml:space="preserve"><tspan
         style="font-size:9.87778px;stroke-width:0.274259"
         y="48.214512"
         x="209.46016"
         id="tspan1669"
         sodipodi:role="line">(x, y, z)</tspan></text>
    <path
       id="path1775"
       d="M 127.73469,77.342602 127.87947,46.93125 143.6978,36.202663 c 8.09067,-5.487397 14.66119,-9.353113 14.80658,-9.405501 0.16106,-0.05803 -0.26081,15.469866 -0.26081,38.647581 v 38.042877 l -14.36403,9.50811 c -7.90022,5.22946 -15.36394,9.77061 -15.56046,9.88639 -0.28513,0.16799 -0.92188,-15.14244 -0.58439,-45.539518 z m 19.61659,-2.151777 c 0.83032,-1.986552 0.50915,-4.276815 -0.78336,-4.276815 -1.15555,0 -1.60767,0.66046 -1.59856,2.495096 0.0105,2.094001 0.54442,2.259159 1.67267,2.259159 0.71354,0 0.36643,0.342751 0.70925,-0.47744 z"
       style="fill:#9a5e35;fill-opacity:1;stroke:none;stroke-width:0.394274;stroke-miterlimit:4;stroke-dasharray:none;stroke-dashoffset:0;stroke-opacity:1"
       sodipodi:nodetypes="ccssscsscssscs" />
    <path
       id="path1857"
       d="m 73.005339,36.276738 v -9.811005 l 42.219471,0.0066 42.21949,0.0066 -14.79693,9.800066 -14.79691,9.800066 -27.42256,0.0043 -27.422561,0.0043 z"
       style="fill:#503523;fill-opacity:0.72549;stroke:none;stroke-width:0.443756;stroke-miterlimit:4;stroke-dasharray:none;stroke-dashoffset:0;stroke-opacity:1" />
    <path
       id="path1859"
       d="m 73.005339,75.038243 v -28.30716 h 27.396941 27.39694 V 75.038243 103.3454 H 100.40228 73.005339 Z"
       style="fill:#503523;fill-opacity:0.72549;stroke:none;stroke-width:0.444201;stroke-miterlimit:4;stroke-dasharray:none;stroke-dashoffset:0;stroke-opacity:1" />
    <text
       id="text1881"
       y="8.5654039"
       x="144.48767"
       style="font-size:9.87778px;line-height:1.25;font-family:Times;-inkscape-font-specification:'Times, Normal';stroke-width:0.274259"
       xml:space="preserve"><tspan
         style="font-size:9.87778px;stroke-width:0.274259"
         y="8.5654039"
         x="144.48767"
         id="tspan1879"
         sodipodi:role="line">y</tspan></text>
    <text
       id="text1885"
       y="75.782768"
       x="227.35788"
       style="font-size:9.87778px;line-height:1.25;font-family:Times;-inkscape-font-specification:'Times, Normal';stroke-width:0.274259"
       xml:space="preserve"><tspan
         style="font-size:9.87778px;stroke-width:0.274259"
         y="75.782768"
         x="227.35788"
         id="tspan1883"
         sodipodi:role="line">z</tspan></text>
    <text
       id="text1889"
       y="98.680161"
       x="102.38602"
       style="font-size:9.87778px;line-height:1.25;font-family:Times;-inkscape-font-specification:'Times, Normal';stroke-width:0.274259"
       xml:space="preserve"><tspan
         style="font-size:9.87778px;stroke-width:0.274259"
         y="98.680161"
         x="102.38602"
         id="tspan1887"
         sodipodi:role="line">x</tspan></text>
    <path
       d="m 229.07261,31.098889 c 0.0493,-0.02716 -0.0453,0.11452 -0.0959,0.139271 -0.0454,0.02224 -0.0987,0.0095 -0.15159,5.36e-4 0.0829,-0.04587 0.16448,-0.09412 0.24748,-0.139807 z"
       style="fill:#17cadb;fill-opacity:0.834008;stroke:none;stroke-width:0.378348;stroke-miterlimit:4;stroke-dasharray:none;stroke-dashoffset:0;stroke-opacity:1"
       id="path1942" />
    <path
       d="m 209.33401,30.495198 c 0.003,-6.83e-4 0.008,0.0032 0.0118,0.0027 -0.14151,0.08237 -0.0658,0.04014 -0.21321,0.125882 -0.0689,0.04011 0.12337,-0.112435 0.20142,-0.128559 z"
       style="fill:#17cadb;fill-opacity:0.834008;stroke:none;stroke-width:0.378348;stroke-miterlimit:4;stroke-dasharray:none;stroke-dashoffset:0;stroke-opacity:1"
       id="path1940" />
    <path
       d="m 208.28786,29.381557 c -0.0857,0.04749 -0.16975,0.09785 -0.25551,0.145165 -0.044,0.02426 0.0323,-0.08543 0.0825,-0.125882 0.0317,-0.0034 0.0627,-0.01237 0.0942,-0.01661 0.0238,-0.0051 0.0528,-0.0013 0.0788,-0.0027 z"
       style="fill:#17cadb;fill-opacity:0.834008;stroke:none;stroke-width:0.378348;stroke-miterlimit:4;stroke-dasharray:none;stroke-dashoffset:0;stroke-opacity:1"
       id="path1938" />
    <path
       d="m 232.41353,27.53888 c -0.0104,0.0064 -0.34793,0.212891 -0.35514,0.2148 -0.007,0.002 -0.0166,-0.0026 -0.0241,-10e-4 0.12641,-0.07126 0.25285,-0.142475 0.37925,-0.21373 z"
       style="fill:#17cadb;fill-opacity:0.834008;stroke:none;stroke-width:0.378348;stroke-miterlimit:4;stroke-dasharray:none;stroke-dashoffset:0;stroke-opacity:1"
       id="path1936" />
    <path
       d="m 215.78981,24.144392 c 0.0677,-0.03817 -0.10831,0.11698 -0.17892,0.149449 -0.0406,0.01871 -0.0871,0.0205 -0.13124,0.02894 0.47788,-0.270102 -0.24846,0.136757 0.31016,-0.178376 z"
       style="fill:#17cadb;fill-opacity:0.834008;stroke:none;stroke-width:0.378348;stroke-miterlimit:4;stroke-dasharray:none;stroke-dashoffset:0;stroke-opacity:1"
       id="path1932" />
    <path
       d="m 233.04883,20.246916 c 0.0556,-0.0058 0.10538,0.03935 0.1607,0.04713 0.048,0.0068 0.18731,-0.02914 0.1457,-0.0042 -0.11106,0.06621 -0.2241,0.129066 -0.33533,0.194981 -0.0701,-0.06214 -0.0634,-0.228142 0.0289,-0.237833 z"
       style="fill:#17cadb;fill-opacity:0.834008;stroke:none;stroke-width:0.378348;stroke-miterlimit:4;stroke-dasharray:none;stroke-dashoffset:0;stroke-opacity:1"
       id="path1930" />
    <path
       id="path2007"
       d="M 215.07455,52.920176 C 53.344321,101.70774 53.344321,101.70774 53.344321,101.70774"
       style="fill:#d8d118;fill-opacity:1;stroke:#ffbf00;stroke-width:0.57943751;stroke-linecap:butt;stroke-linejoin:miter;stroke-miterlimit:4;stroke-dasharray:none;stroke-opacity:1"
       clip-path="url(#clipPath1606)" />
    <ellipse
       style="fill:#fbe90b;fill-opacity:1;stroke:#ffbf00;stroke-width:0.45772917;stroke-miterlimit:4;stroke-dasharray:none;stroke-dashoffset:0;stroke-opacity:1"
       id="path2014-4"
       cx="214.91685"
       cy="52.662506"
       rx="2.4943414"
       ry="2.2675834" />
    <path
       id="path1433"
       d="M 146.38402,73.359636 C 107.89146,95.583338 107.89146,95.583338 107.89146,95.583338"
       style="fill:none;stroke:#000000;stroke-width:0.474;stroke-linecap:butt;stroke-linejoin:miter;stroke-miterlimit:4;stroke-dasharray:none;stroke-opacity:1;marker-end:url(#marker1437)" />
    <path
       id="path1401"
       d="m 146.38402,73.359636 c 0,-60.660005 0,-60.660005 0,-60.660005"
       style="fill:none;stroke:#000000;stroke-width:0.478;stroke-linecap:butt;stroke-linejoin:miter;stroke-miterlimit:4;stroke-dasharray:none;stroke-opacity:1;marker-end:url(#marker1369)" />
    <ellipse
       ry="2.5079513"
       rx="1.1920347"
       cy="73.280724"
       cx="146.36661"
       id="path953"
       style="fill:#503523;fill-opacity:0.72549021;stroke:#000000;stroke-width:0.661202;stroke-opacity:1" />
    <path
       transform="scale(0.26458333)"
       id="path3483"
       d="m 167.32405,172.75453 c 1.92963,-1.83307 104.31241,-69.25538 105.16636,-69.25538 0.37145,0 0.67536,15.88752 0.67536,35.30561 v 35.30561 h -53.63448 c -31.9447,0 -53.0573,-0.5483 -52.20724,-1.35584 z"
       style="fill:#916748;fill-opacity:0.52549;stroke:none;stroke-width:3.07193;stroke-miterlimit:4;stroke-dasharray:none;stroke-dashoffset:0;stroke-opacity:0.258824" />
    <path
       transform="scale(0.26458333)"
       id="path3485"
       d="M 161.99065,319.83991 V 177.1151 h 55.58756 55.58756 v 106.50281 106.50282 l -54.77219,36.22199 c -30.1247,19.9221 -55.1391,36.22199 -55.58755,36.22199 -0.44846,0 -0.81538,-64.22616 -0.81538,-142.7248 z"
       style="fill:#916748;fill-opacity:0.52549;stroke:none;stroke-width:3.07193;stroke-miterlimit:4;stroke-dasharray:none;stroke-dashoffset:0;stroke-opacity:0.258824" />
    <ellipse
       ry="2.2675834"
       rx="2.4943414"
       cy="101.99258"
       cx="51.887157"
       id="path2014"
       style="fill:#fbe90b;fill-opacity:1;stroke:#ffbf00;stroke-width:0.45772917;stroke-miterlimit:4;stroke-dasharray:none;stroke-dashoffset:0;stroke-opacity:1" />
    <path
       style="fill:#ca8d66;fill-opacity:1;stroke:#000000;stroke-width:0.264583px;stroke-linecap:butt;stroke-linejoin:miter;stroke-opacity:1"
       d="m 42.330391,123.57888 30.385141,-19.96909 h 55.063848 l 0.34891,19.96909 H 42.330391"
       id="path1284" />
    <path
       style="fill:none;stroke:#000000;stroke-width:0.465;stroke-linecap:butt;stroke-linejoin:miter;stroke-miterlimit:4;stroke-dasharray:none;stroke-opacity:1"
       d="m 42.2305,46.390085 v 77.188795 l 85.79792,-1e-5 0.0999,-77.188787 -85.89779,2e-6"
       id="path1158"
       sodipodi:nodetypes="ccccc" />
    <path
       style="fill:none;stroke:#000000;stroke-width:0.76500001;stroke-linecap:butt;stroke-linejoin:miter;stroke-miterlimit:4;stroke-dasharray:none;stroke-opacity:1"
       d="m 127.68962,46.731083 30.82382,-20.673582 v 77.389249 l -30.48502,20.13212"
       id="path1448"
       sodipodi:nodetypes="cccc" />
    <path
       style="fill:none;stroke:#000000;stroke-width:0.265;stroke-linecap:butt;stroke-linejoin:miter;stroke-miterlimit:4;stroke-dasharray:none;stroke-opacity:1"
       d="m 158.51344,26.057501 -85.508101,0.408232 m 0,0 L 42.2305,46.59 l 85.56872,0.141083 0.0288,76.847787"
       id="path1041"
       sodipodi:nodetypes="cccccc" />
    <path
       id="path2007-9"
       d="M 215.07455,52.920176 C 53.344313,101.70774 53.344313,101.70774 53.344313,101.70774"
       style="fill:#d8d118;fill-opacity:1;stroke:#ffbf00;stroke-width:0.57943751;stroke-linecap:butt;stroke-linejoin:miter;stroke-miterlimit:4;stroke-dasharray:none;stroke-opacity:1"
       clip-path="url(#clipPath1498)" />
  </g>
</svg>
